<svg width="35" height="35" viewBox="0 0 35 35" fill="none" xmlns="http://www.w3.org/2000/svg">
<rect x="0.5" y="0.5" width="34" height="34" rx="7.5" stroke="#4177FF"/>
<g clip-path="url(#clip0_10_19801)">
<path d="M20.1207 14.8838C19.875 14.8838 19.6758 15.083 19.6758 15.3288V23.7386C19.6758 23.9842 19.875 24.1835 20.1207 24.1835C20.3665 24.1835 20.5657 23.9842 20.5657 23.7386V15.3288C20.5657 15.083 20.3665 14.8838 20.1207 14.8838Z" fill="#4177FF"/>
<path d="M14.8707 14.8838C14.625 14.8838 14.4258 15.083 14.4258 15.3288V23.7386C14.4258 23.9842 14.625 24.1835 14.8707 24.1835C15.1165 24.1835 15.3157 23.9842 15.3157 23.7386V15.3288C15.3157 15.083 15.1165 14.8838 14.8707 14.8838Z" fill="#4177FF"/>
<path d="M11.044 13.6565V24.6194C11.044 25.2674 11.2816 25.8759 11.6967 26.3126C12.1099 26.7504 12.6848 26.999 13.2866 27H21.7054C22.3074 26.999 22.8823 26.7504 23.2953 26.3126C23.7104 25.8759 23.948 25.2674 23.948 24.6194V13.6565C24.7731 13.4375 25.3077 12.6404 25.1974 11.7937C25.0868 10.9472 24.3657 10.314 23.5119 10.3139H21.2337V9.75766C21.2363 9.28993 21.0514 8.8408 20.7203 8.51038C20.3891 8.18013 19.9393 7.99623 19.4716 8.00006H15.5204C15.0527 7.99623 14.6029 8.18013 14.2718 8.51038C13.9407 8.8408 13.7557 9.28993 13.7583 9.75766V10.3139H11.4801C10.6264 10.314 9.90521 10.9472 9.79467 11.7937C9.6843 12.6404 10.2189 13.4375 11.044 13.6565ZM21.7054 26.1101H13.2866C12.5258 26.1101 11.934 25.4565 11.934 24.6194V13.6956H23.0581V24.6194C23.0581 25.4565 22.4662 26.1101 21.7054 26.1101ZM14.6482 9.75766C14.6453 9.52597 14.7364 9.30297 14.9008 9.13941C15.0651 8.97585 15.2886 8.88599 15.5204 8.88999H19.4716C19.7034 8.88599 19.927 8.97585 20.0912 9.13941C20.2557 9.30279 20.3467 9.52597 20.3438 9.75766V10.3139H14.6482V9.75766ZM11.4801 11.2038H23.5119C23.9542 11.2038 24.3128 11.5624 24.3128 12.0047C24.3128 12.4471 23.9542 12.8057 23.5119 12.8057H11.4801C11.0378 12.8057 10.6792 12.4471 10.6792 12.0047C10.6792 11.5624 11.0378 11.2038 11.4801 11.2038Z" fill="#4177FF"/>
<path d="M17.4957 14.8838C17.25 14.8838 17.0508 15.083 17.0508 15.3288V23.7386C17.0508 23.9842 17.25 24.1835 17.4957 24.1835C17.7415 24.1835 17.9407 23.9842 17.9407 23.7386V15.3288C17.9407 15.083 17.7415 14.8838 17.4957 14.8838Z" fill="#4177FF"/>
</g>
<defs>
<clipPath id="clip0_10_19801">
<rect width="19" height="19" fill="white" transform="translate(8 8)"/>
</clipPath>
</defs>
</svg>
