<svg width="35" height="36" viewBox="0 0 35 36" fill="none" xmlns="http://www.w3.org/2000/svg">
<rect x="0.5" y="0.5" width="34" height="34" rx="7.5" stroke="#4177FF"/>
<path d="M22.0559 7.9375C20.2434 6.125 17.7559 5 14.9934 5C9.46836 5 5.00586 9.475 5.00586 15C5.00586 20.525 9.46836 25 14.9934 25C19.6559 25 23.5434 21.8125 24.6559 17.5H22.0559C21.0309 20.4125 18.2559 22.5 14.9934 22.5C10.8559 22.5 7.49336 19.1375 7.49336 15C7.49336 10.8625 10.8559 7.5 14.9934 7.5C17.0684 7.5 18.9184 8.3625 20.2684 9.725L16.2434 13.75H24.9934V5L22.0559 7.9375Z" fill="#4177FF"/>
<rect x="15.4287" y="17.1426" width="14.5714" height="13.7143" fill="white"/>
<path fill-rule="evenodd" clip-rule="evenodd" d="M26.8249 24.8309C26.5335 25.3623 25.9678 25.7137 25.3249 25.7137H18.9392L17.9964 27.428H28.2821V29.1423H17.9964C16.6935 29.1423 15.8707 27.7452 16.4964 26.5966L17.6535 24.5052L14.5678 17.9994H12.8535V16.2852H15.6564L16.4621 17.9994H29.1478C29.7992 17.9994 30.2107 18.7023 29.8935 19.268L26.8249 24.8309ZM27.6907 19.7137H17.2764L19.3078 23.9994H25.3249L27.6907 19.7137ZM17.9964 29.9994C17.0535 29.9994 16.2907 30.7709 16.2907 31.7137C16.2907 32.6566 17.0535 33.428 17.9964 33.428C18.9392 33.428 19.7107 32.6566 19.7107 31.7137C19.7107 30.7709 18.9392 29.9994 17.9964 29.9994ZM24.8621 31.7137C24.8621 30.7709 25.6249 29.9994 26.5678 29.9994C27.5107 29.9994 28.2821 30.7709 28.2821 31.7137C28.2821 32.6566 27.5107 33.428 26.5678 33.428C25.6249 33.428 24.8621 32.6566 24.8621 31.7137Z" fill="#4177FF"/>
</svg>
